<?xml version="1.0" standalone="no"?>
<!DOCTYPE svg PUBLIC "-//W3C//DTD SVG 20010904//EN"
 "http://www.w3.org/TR/2001/REC-SVG-20010904/DTD/svg10.dtd">
<svg version="1.0" xmlns="http://www.w3.org/2000/svg"
 width="300.000000pt" height="300.000000pt" viewBox="0 0 300.000000 300.000000"
 preserveAspectRatio="xMidYMid meet">
<metadata>
Created by potrace 1.10, written by Peter Selinger 2001-2011
</metadata>
<g transform="translate(0.000000,300.000000) scale(0.100000,-0.100000)"
fill="#ffffff" stroke="none">
<path d="M1305 2250 c-38 -10 -90 -26 -115 -36 l-44 -18 30 -12 c25 -10 39 -9
86 7 163 55 347 47 504 -22 117 -51 250 -167 310 -268 25 -42 34 -39 34 9 0
38 -7 47 -97 138 -85 85 -111 104 -193 144 -52 26 -127 54 -167 62 -98 22
-259 20 -348 -4z"/>
<path d="M1065 2141 c-220 -104 -340 -652 -179 -814 69 -69 155 -60 274 29 69
52 129 129 208 266 31 54 61 98 66 98 9 0 2 -97 -15 -235 -10 -78 -11 -80 -69
-142 -105 -112 -170 -227 -170 -299 0 -35 44 -77 73 -69 66 19 139 156 172
326 l17 87 103 102 102 102 -4 -49 c-4 -39 -1 -51 15 -66 27 -25 55 -15 82 27
32 52 37 118 12 159 -15 26 -17 38 -9 46 8 8 8 14 -1 23 -15 15 -37 -3 -62
-51 -18 -35 -216 -238 -224 -230 -2 2 0 27 4 54 10 59 13 227 4 249 -9 24 -40
19 -58 -9 -9 -13 -41 -68 -72 -122 -115 -200 -230 -303 -337 -303 -108 0 -155
111 -135 313 27 273 197 533 302 463 63 -41 93 -170 75 -318 -17 -131 -17
-163 0 -163 34 0 62 246 42 357 -29 149 -115 218 -216 169z m665 -534 c0 -26
-8 -55 -22 -77 l-23 -35 -3 28 c-4 35 26 139 38 132 6 -4 10 -25 10 -48z
m-336 -294 c-18 -76 -65 -207 -88 -247 -27 -47 -67 -69 -88 -48 -28 28 40 172
134 282 40 46 51 49 42 13z"/>
<path d="M2170 1991 c-5 -11 -15 -43 -20 -73 -28 -141 -31 -148 -54 -148 -51
0 -116 -115 -116 -205 0 -33 5 -47 16 -52 33 -12 59 20 103 127 l18 45 0 -150
c-1 -156 7 -215 26 -215 9 0 12 60 12 228 0 216 1 232 28 335 15 59 25 112 22
117 -10 16 -23 12 -35 -9z m-74 -278 c-22 -63 -74 -173 -82 -173 -12 0 4 97
22 132 18 36 53 78 65 78 5 0 2 -17 -5 -37z"/>
<path d="M804 1844 c-44 -100 -64 -197 -64 -314 0 -172 46 -315 146 -450 37
-51 48 -59 60 -50 20 18 18 27 -19 70 -71 84 -133 251 -152 411 -9 72 11 223
40 314 13 38 21 72 19 74 -2 2 -16 -22 -30 -55z"/>
<path d="M2190 1532 c1 -122 -1 -226 -5 -232 -3 -5 -12 -10 -20 -10 -7 0 -30
-34 -51 -76 -21 -41 -54 -93 -73 -115 -30 -37 -32 -42 -18 -56 20 -21 28 -14
82 66 54 82 100 189 115 268 20 110 7 336 -22 368 -5 6 -8 -82 -8 -213z"/>
<path d="M1877 1722 c-28 -30 -58 -111 -64 -168 -5 -44 -2 -58 12 -74 10 -11
24 -20 32 -20 26 0 62 51 74 105 11 48 10 58 -8 94 -13 26 -17 43 -10 50 10
10 2 31 -12 31 -4 0 -15 -8 -24 -18z m21 -123 c-3 -26 -14 -60 -24 -76 l-19
-28 -3 28 c-2 15 4 52 13 82 19 68 39 64 33 -6z"/>
<path d="M980 1015 c-19 -19 -30 -38 -25 -42 4 -5 10 -2 12 5 6 15 29 16 38 2
4 -6 1 -18 -6 -26 -6 -8 -9 -17 -5 -21 5 -5 66 53 66 63 0 2 -11 14 -23 28
l-24 25 -33 -34z m55 -5 c11 -17 -5 -32 -21 -19 -8 6 -14 15 -14 20 0 12 27
11 35 -1z"/>
<path d="M1942 1028 c-7 -7 -12 -21 -12 -31 0 -17 5 -19 41 -13 31 5 40 3 37
-6 -3 -7 -14 -14 -26 -16 -27 -4 -29 -22 -3 -22 24 0 44 24 39 47 -4 19 -28
22 -60 8 -12 -4 -18 -3 -18 5 0 6 9 14 20 17 11 3 20 9 20 14 0 13 -24 11 -38
-3z"/>
<path d="M1130 899 c-12 -22 -20 -42 -18 -43 43 -28 58 -34 62 -27 3 4 -6 13
-19 19 -14 7 -25 15 -25 20 0 16 13 22 26 11 7 -6 19 -9 26 -6 8 4 5 8 -9 12
-13 4 -23 14 -23 21 0 17 5 17 32 3 11 -6 22 -8 25 -6 3 3 -9 13 -26 21 l-30
16 -21 -41z"/>
<path d="M1793 925 l-22 -15 21 -38 c12 -20 23 -38 24 -40 1 -2 17 4 36 14 18
9 28 19 21 21 -7 2 -21 0 -31 -6 -19 -10 -32 -6 -32 10 0 4 9 11 20 14 11 3
20 11 20 16 0 6 -9 5 -21 -2 -15 -8 -24 -8 -32 0 -7 7 -7 11 -1 11 6 0 19 7
30 15 27 20 -4 20 -33 0z"/>
<path d="M1305 850 c-33 -37 2 -92 49 -74 9 3 16 13 16 21 0 13 -3 13 -15 3
-21 -18 -47 -5 -43 22 3 26 36 37 49 17 4 -7 11 -10 15 -6 10 10 -16 37 -36
37 -9 0 -25 -9 -35 -20z"/>
<path d="M1615 858 c-7 -20 9 -81 22 -85 7 -3 9 4 6 16 -3 12 -1 21 5 21 18 0
41 30 36 45 -7 18 -63 20 -69 3z m45 -28 c-21 -14 -30 -12 -30 4 0 18 22 27
35 14 6 -6 5 -12 -5 -18z"/>
</g>
</svg>
